<mxfile host="Electron" modified="2024-03-29T09:03:41.461Z" agent="Mozilla/5.0 (Windows NT 10.0; Win64; x64) AppleWebKit/537.36 (KHTML, like Gecko) draw.io/24.1.0 Chrome/120.0.6099.109 Electron/28.1.0 Safari/537.36" etag="e--TIZq-WWoUQPTx0t90" version="24.1.0" type="device" pages="2">
  <diagram name="Unlocking" id="nWFqARH4Pq-UV2aZ8Bt_">
    <mxGraphModel dx="4921" dy="2577" grid="1" gridSize="10" guides="1" tooltips="1" connect="1" arrows="1" fold="1" page="1" pageScale="1" pageWidth="827" pageHeight="1169" math="0" shadow="0">
      <root>
        <mxCell id="ymZMIOoLE_UaPyQV4W8x-0" />
        <mxCell id="ymZMIOoLE_UaPyQV4W8x-1" parent="ymZMIOoLE_UaPyQV4W8x-0" />
        <mxCell id="ymZMIOoLE_UaPyQV4W8x-5" value="GIVE ME A HAND" style="rounded=1;whiteSpace=wrap;html=1;fillColor=#e6d0de;strokeColor=#996185;gradientColor=#d5739d;fontColor=#000000;points=[[0,0,0,0,0],[0,0.25,0,0,0],[0,0.5,0,0,0],[0,0.75,0,0,0],[0,1,0,0,0],[0.2,0,0,0,0],[0.25,1,0,0,0],[0.4,0,0,0,0],[0.5,1,0,0,0],[0.6,0,0,0,0],[0.75,1,0,0,0],[0.8,0,0,0,0],[1,0,0,0,0],[1,0.25,0,0,0],[1,0.5,0,0,0],[1,0.75,0,0,0],[1,1,0,0,0]];" parent="ymZMIOoLE_UaPyQV4W8x-1" vertex="1">
          <mxGeometry x="-830" y="740" width="120" height="60" as="geometry" />
        </mxCell>
        <mxCell id="ymZMIOoLE_UaPyQV4W8x-7" value="PILLOW TALK" style="rounded=1;whiteSpace=wrap;html=1;fillColor=#e6d0de;strokeColor=#996185;gradientColor=#d5739d;fontColor=#000000;" parent="ymZMIOoLE_UaPyQV4W8x-1" vertex="1">
          <mxGeometry x="-720" y="320" width="120" height="60" as="geometry" />
        </mxCell>
        <mxCell id="ymZMIOoLE_UaPyQV4W8x-9" value="STANDARD JOB" style="rounded=1;whiteSpace=wrap;html=1;fillColor=#e6d0de;strokeColor=#996185;gradientColor=#d5739d;fontColor=#000000;sketch=1;curveFitting=1;jiggle=2;" parent="ymZMIOoLE_UaPyQV4W8x-1" vertex="1">
          <mxGeometry x="-1190" y="480" width="120" height="60" as="geometry" />
        </mxCell>
        <mxCell id="ymZMIOoLE_UaPyQV4W8x-11" value="NO SHORT ORDER" style="rounded=1;whiteSpace=wrap;html=1;fillColor=#e6d0de;strokeColor=#996185;gradientColor=#d5739d;fontColor=#000000;" parent="ymZMIOoLE_UaPyQV4W8x-1" vertex="1">
          <mxGeometry x="-1340" y="480" width="120" height="60" as="geometry" />
        </mxCell>
        <mxCell id="ymZMIOoLE_UaPyQV4W8x-14" value="THE FAULT IN OUR SCARF" style="rounded=1;whiteSpace=wrap;html=1;fillColor=#e6d0de;strokeColor=#996185;gradientColor=#d5739d;fontColor=#000000;" parent="ymZMIOoLE_UaPyQV4W8x-1" vertex="1">
          <mxGeometry x="-530" y="980" width="120" height="60" as="geometry" />
        </mxCell>
        <mxCell id="ymZMIOoLE_UaPyQV4W8x-18" value="SPELLING MISCHIEF" style="rounded=1;whiteSpace=wrap;html=1;fillColor=#e6d0de;strokeColor=#996185;gradientColor=#d5739d;fontColor=#000000;points=[[0,0,0,0,0],[0,0.25,0,0,0],[0,0.5,0,0,0],[0,0.75,0,0,0],[0,1,0,0,0],[0.2,0,0,0,0],[0.25,1,0,0,0],[0.4,0,0,0,0],[0.5,1,0,0,0],[0.6,0,0,0,0],[0.75,1,0,0,0],[0.8,0,0,0,0],[1,0,0,0,0],[1,0.25,0,0,0],[1,0.5,0,0,0],[1,0.75,0,0,0],[1,1,0,0,0]];" parent="ymZMIOoLE_UaPyQV4W8x-1" vertex="1">
          <mxGeometry x="-280" y="740" width="120" height="60" as="geometry" />
        </mxCell>
        <mxCell id="ymZMIOoLE_UaPyQV4W8x-20" value="DON&#39;T LOOSE MY HEAD" style="rounded=1;whiteSpace=wrap;html=1;fillColor=#e6d0de;strokeColor=#996185;gradientColor=#d5739d;fontColor=#000000;" parent="ymZMIOoLE_UaPyQV4W8x-1" vertex="1">
          <mxGeometry x="-680" y="980" width="120" height="60" as="geometry" />
        </mxCell>
        <mxCell id="lDXFYdPBkvEPl9tQAfWs-1" style="edgeStyle=orthogonalEdgeStyle;shape=connector;rounded=0;jumpStyle=arc;orthogonalLoop=1;jettySize=auto;html=1;labelBackgroundColor=default;strokeColor=#66B2FF;align=center;verticalAlign=middle;fontFamily=Helvetica;fontSize=11;fontColor=default;endArrow=doubleBlock;entryX=0.75;entryY=0;entryDx=0;entryDy=0;endFill=1;exitX=0.75;exitY=1;exitDx=0;exitDy=0;" parent="ymZMIOoLE_UaPyQV4W8x-1" source="ymZMIOoLE_UaPyQV4W8x-21" target="ymZMIOoLE_UaPyQV4W8x-32" edge="1">
          <mxGeometry relative="1" as="geometry">
            <Array as="points">
              <mxPoint x="-860" y="-480" />
              <mxPoint x="-730" y="-480" />
            </Array>
          </mxGeometry>
        </mxCell>
        <mxCell id="0qum00yRcTYJnj8lrS7l-2" style="edgeStyle=orthogonalEdgeStyle;shape=connector;rounded=0;jumpStyle=arc;orthogonalLoop=1;jettySize=auto;html=1;exitX=0.25;exitY=1;exitDx=0;exitDy=0;entryX=0.5;entryY=0;entryDx=0;entryDy=0;labelBackgroundColor=default;strokeColor=default;align=center;verticalAlign=middle;fontFamily=Helvetica;fontSize=11;fontColor=default;endArrow=classic;" parent="ymZMIOoLE_UaPyQV4W8x-1" source="ymZMIOoLE_UaPyQV4W8x-21" target="0qum00yRcTYJnj8lrS7l-1" edge="1">
          <mxGeometry relative="1" as="geometry">
            <Array as="points">
              <mxPoint x="-920" y="-480" />
              <mxPoint x="-1200" y="-480" />
            </Array>
          </mxGeometry>
        </mxCell>
        <mxCell id="f2ULgr7aXU11di6HYDnU-6" style="edgeStyle=orthogonalEdgeStyle;rounded=0;orthogonalLoop=1;jettySize=auto;html=1;exitX=0.75;exitY=1;exitDx=0;exitDy=0;entryX=0.5;entryY=0;entryDx=0;entryDy=0;exitPerimeter=0;" parent="ymZMIOoLE_UaPyQV4W8x-1" source="0qum00yRcTYJnj8lrS7l-1" target="f2ULgr7aXU11di6HYDnU-15" edge="1">
          <mxGeometry relative="1" as="geometry">
            <Array as="points">
              <mxPoint x="-1132" y="-350" />
              <mxPoint x="-1132" y="-320" />
              <mxPoint x="-900" y="-320" />
            </Array>
          </mxGeometry>
        </mxCell>
        <mxCell id="ymZMIOoLE_UaPyQV4W8x-21" value="TUTORIAL" style="rounded=1;whiteSpace=wrap;html=1;fillColor=#e6d0de;strokeColor=#996185;gradientColor=#d5739d;fontColor=#000000;" parent="ymZMIOoLE_UaPyQV4W8x-1" vertex="1">
          <mxGeometry x="-950" y="-584" width="120" height="60" as="geometry" />
        </mxCell>
        <mxCell id="Tu3ARp0lV0yLjuxXfmdZ-1" style="edgeStyle=orthogonalEdgeStyle;shape=connector;rounded=0;jumpStyle=arc;orthogonalLoop=1;jettySize=auto;html=1;exitX=0.6;exitY=1;exitDx=0;exitDy=0;entryX=0.6;entryY=0;entryDx=0;entryDy=0;labelBackgroundColor=default;strokeColor=#66B2FF;align=center;verticalAlign=middle;fontFamily=Helvetica;fontSize=11;fontColor=default;endArrow=doubleBlock;endFill=1;entryPerimeter=0;exitPerimeter=0;" parent="ymZMIOoLE_UaPyQV4W8x-1" source="ymZMIOoLE_UaPyQV4W8x-23" target="ymZMIOoLE_UaPyQV4W8x-18" edge="1">
          <mxGeometry relative="1" as="geometry">
            <Array as="points">
              <mxPoint x="-208" y="450" />
              <mxPoint x="-208" y="450" />
            </Array>
          </mxGeometry>
        </mxCell>
        <mxCell id="TQcrhEMOB_y6SZEUR-y6-3" style="edgeStyle=orthogonalEdgeStyle;shape=connector;rounded=0;jumpStyle=arc;orthogonalLoop=1;jettySize=auto;html=1;labelBackgroundColor=default;strokeColor=#66B2FF;align=center;verticalAlign=middle;fontFamily=Helvetica;fontSize=11;fontColor=default;endArrow=doubleBlock;endFill=1;entryX=0.8;entryY=0;entryDx=0;entryDy=0;entryPerimeter=0;exitX=0.4;exitY=1;exitDx=0;exitDy=0;exitPerimeter=0;" parent="ymZMIOoLE_UaPyQV4W8x-1" source="ymZMIOoLE_UaPyQV4W8x-23" target="ymZMIOoLE_UaPyQV4W8x-5" edge="1">
          <mxGeometry relative="1" as="geometry">
            <mxPoint x="-570" y="670" as="targetPoint" />
            <Array as="points">
              <mxPoint x="-232" y="440" />
              <mxPoint x="-734" y="440" />
            </Array>
            <mxPoint x="-170" y="410" as="sourcePoint" />
          </mxGeometry>
        </mxCell>
        <mxCell id="ymZMIOoLE_UaPyQV4W8x-23" value="BEACH" style="rounded=0;whiteSpace=wrap;html=1;fillColor=#1ba1e2;strokeColor=#006EAF;fontColor=#ffffff;points=[[0,0,0,0,0],[0,0.25,0,0,0],[0,0.5,0,0,0],[0,0.75,0,0,0],[0,1,0,0,0],[0.2,1,0,0,0],[0.25,0,0,0,0],[0.4,1,0,0,0],[0.5,0,0,0,0],[0.6,1,0,0,0],[0.75,0,0,0,0],[0.8,1,0,0,0],[1,0,0,0,0],[1,0.25,0,0,0],[1,0.5,0,0,0],[1,0.75,0,0,0],[1,1,0,0,0]];" parent="ymZMIOoLE_UaPyQV4W8x-1" vertex="1">
          <mxGeometry x="-280" y="320" width="120" height="60" as="geometry" />
        </mxCell>
        <mxCell id="TQcrhEMOB_y6SZEUR-y6-4" style="edgeStyle=orthogonalEdgeStyle;shape=connector;rounded=0;jumpStyle=arc;orthogonalLoop=1;jettySize=auto;html=1;exitX=0.5;exitY=1;exitDx=0;exitDy=0;entryX=0.6;entryY=0;entryDx=0;entryDy=0;labelBackgroundColor=default;strokeColor=#66b2ff;align=center;verticalAlign=middle;fontFamily=Helvetica;fontSize=11;fontColor=default;endArrow=doubleBlock;endFill=1;entryPerimeter=0;" parent="ymZMIOoLE_UaPyQV4W8x-1" source="ymZMIOoLE_UaPyQV4W8x-24" target="ymZMIOoLE_UaPyQV4W8x-5" edge="1">
          <mxGeometry relative="1" as="geometry">
            <Array as="points">
              <mxPoint x="-860" y="670" />
              <mxPoint x="-758" y="670" />
            </Array>
          </mxGeometry>
        </mxCell>
        <mxCell id="ymZMIOoLE_UaPyQV4W8x-24" value="FIGHTING PIT/ MAGIC TOWER" style="rounded=0;whiteSpace=wrap;html=1;fillColor=#1ba1e2;strokeColor=#006EAF;fontColor=#ffffff;" parent="ymZMIOoLE_UaPyQV4W8x-1" vertex="1">
          <mxGeometry x="-920" y="320" width="120" height="60" as="geometry" />
        </mxCell>
        <mxCell id="wZdeE6nvQl1bjxPv1J4i-1" style="edgeStyle=orthogonalEdgeStyle;shape=connector;rounded=0;jumpStyle=arc;orthogonalLoop=1;jettySize=auto;html=1;exitX=0.4;exitY=1;exitDx=0;exitDy=0;entryX=0.75;entryY=0;entryDx=0;entryDy=0;labelBackgroundColor=default;strokeColor=#66B2FF;align=center;verticalAlign=middle;fontFamily=Helvetica;fontSize=11;fontColor=default;endArrow=doubleBlock;endFill=1;exitPerimeter=0;flowAnimation=0;" parent="ymZMIOoLE_UaPyQV4W8x-1" source="ymZMIOoLE_UaPyQV4W8x-26" target="ymZMIOoLE_UaPyQV4W8x-9" edge="1">
          <mxGeometry relative="1" as="geometry">
            <Array as="points">
              <mxPoint x="-1032" y="420" />
              <mxPoint x="-1100" y="420" />
            </Array>
          </mxGeometry>
        </mxCell>
        <mxCell id="WjY4cYZxz_K6Fv2neuz2-0" style="edgeStyle=orthogonalEdgeStyle;shape=connector;rounded=0;jumpStyle=arc;orthogonalLoop=1;jettySize=auto;html=1;exitX=0.6;exitY=1;exitDx=0;exitDy=0;entryX=0.4;entryY=0;entryDx=0;entryDy=0;labelBackgroundColor=default;strokeColor=default;align=center;verticalAlign=middle;fontFamily=Helvetica;fontSize=11;fontColor=default;endArrow=classic;exitPerimeter=0;entryPerimeter=0;" parent="ymZMIOoLE_UaPyQV4W8x-1" source="ymZMIOoLE_UaPyQV4W8x-26" target="ymZMIOoLE_UaPyQV4W8x-5" edge="1">
          <mxGeometry relative="1" as="geometry">
            <Array as="points">
              <mxPoint x="-1008" y="690" />
              <mxPoint x="-782" y="690" />
            </Array>
          </mxGeometry>
        </mxCell>
        <mxCell id="ymZMIOoLE_UaPyQV4W8x-26" value="GRAVEYEARD / TEMPLE" style="rounded=0;whiteSpace=wrap;html=1;fillColor=#1ba1e2;strokeColor=#006EAF;fontColor=#ffffff;points=[[0,0,0,0,0],[0,0.25,0,0,0],[0,0.5,0,0,0],[0,0.75,0,0,0],[0,1,0,0,0],[0.2,1,0,0,0],[0.25,0,0,0,0],[0.4,1,0,0,0],[0.5,0,0,0,0],[0.6,1,0,0,0],[0.75,0,0,0,0],[0.8,1,0,0,0],[1,0,0,0,0],[1,0.25,0,0,0],[1,0.5,0,0,0],[1,0.75,0,0,0],[1,1,0,0,0]];" parent="ymZMIOoLE_UaPyQV4W8x-1" vertex="1">
          <mxGeometry x="-1080" y="320" width="120" height="60" as="geometry" />
        </mxCell>
        <mxCell id="w0uGDr1JadTP2g0NZ8n0-1" style="edgeStyle=orthogonalEdgeStyle;shape=connector;rounded=0;jumpStyle=arc;orthogonalLoop=1;jettySize=auto;html=1;exitX=0.5;exitY=1;exitDx=0;exitDy=0;entryX=0.5;entryY=0;entryDx=0;entryDy=0;labelBackgroundColor=default;strokeColor=default;align=center;verticalAlign=middle;fontFamily=Helvetica;fontSize=11;fontColor=default;endArrow=classic;" parent="ymZMIOoLE_UaPyQV4W8x-1" source="ymZMIOoLE_UaPyQV4W8x-27" target="ymZMIOoLE_UaPyQV4W8x-23" edge="1">
          <mxGeometry relative="1" as="geometry" />
        </mxCell>
        <mxCell id="ymZMIOoLE_UaPyQV4W8x-27" value="LIBRARY" style="rounded=0;whiteSpace=wrap;html=1;fillColor=#1ba1e2;strokeColor=#006EAF;fontColor=#ffffff;" parent="ymZMIOoLE_UaPyQV4W8x-1" vertex="1">
          <mxGeometry x="-280" y="230" width="120" height="60" as="geometry" />
        </mxCell>
        <mxCell id="2NjHuyvWCCpULfqJI7z_-0" style="edgeStyle=orthogonalEdgeStyle;shape=connector;rounded=0;jumpStyle=arc;orthogonalLoop=1;jettySize=auto;html=1;exitX=0.75;exitY=1;exitDx=0;exitDy=0;entryX=0.75;entryY=0;entryDx=0;entryDy=0;labelBackgroundColor=default;strokeColor=#66B2FF;align=center;verticalAlign=middle;fontFamily=Helvetica;fontSize=11;fontColor=default;endArrow=doubleBlock;endFill=1;" parent="ymZMIOoLE_UaPyQV4W8x-1" source="ymZMIOoLE_UaPyQV4W8x-28" target="ymZMIOoLE_UaPyQV4W8x-14" edge="1">
          <mxGeometry relative="1" as="geometry">
            <Array as="points">
              <mxPoint y="920" />
              <mxPoint x="-440" y="920" />
            </Array>
          </mxGeometry>
        </mxCell>
        <mxCell id="TQcrhEMOB_y6SZEUR-y6-5" style="edgeStyle=orthogonalEdgeStyle;shape=connector;rounded=0;jumpStyle=arc;orthogonalLoop=1;jettySize=auto;html=1;exitX=0.25;exitY=1;exitDx=0;exitDy=0;entryX=0.8;entryY=0;entryDx=0;entryDy=0;labelBackgroundColor=default;strokeColor=#66B2FF;align=center;verticalAlign=middle;fontFamily=Helvetica;fontSize=11;fontColor=default;endArrow=doubleBlock;endFill=1;entryPerimeter=0;" parent="ymZMIOoLE_UaPyQV4W8x-1" source="ymZMIOoLE_UaPyQV4W8x-28" target="ymZMIOoLE_UaPyQV4W8x-18" edge="1">
          <mxGeometry relative="1" as="geometry">
            <Array as="points">
              <mxPoint x="-60" y="540" />
              <mxPoint x="-184" y="540" />
            </Array>
          </mxGeometry>
        </mxCell>
        <mxCell id="f2ULgr7aXU11di6HYDnU-4" style="edgeStyle=orthogonalEdgeStyle;rounded=0;orthogonalLoop=1;jettySize=auto;html=1;exitX=0.5;exitY=1;exitDx=0;exitDy=0;entryX=0.75;entryY=0;entryDx=0;entryDy=0;endArrow=doubleBlock;endFill=1;strokeColor=#66B2FF;" parent="ymZMIOoLE_UaPyQV4W8x-1" source="ymZMIOoLE_UaPyQV4W8x-14" target="f2ULgr7aXU11di6HYDnU-2" edge="1">
          <mxGeometry relative="1" as="geometry">
            <Array as="points">
              <mxPoint x="-470" y="1120" />
              <mxPoint x="-860" y="1120" />
            </Array>
          </mxGeometry>
        </mxCell>
        <mxCell id="ymZMIOoLE_UaPyQV4W8x-28" value="SARIEL&#39;s HOUSE / FABRIC SHOP" style="rounded=0;whiteSpace=wrap;html=1;fillColor=#1ba1e2;strokeColor=#006EAF;fontColor=#ffffff;" parent="ymZMIOoLE_UaPyQV4W8x-1" vertex="1">
          <mxGeometry x="-90" y="320" width="120" height="60" as="geometry" />
        </mxCell>
        <mxCell id="w0uGDr1JadTP2g0NZ8n0-0" style="edgeStyle=orthogonalEdgeStyle;shape=connector;rounded=0;jumpStyle=arc;orthogonalLoop=1;jettySize=auto;html=1;exitX=0.33;exitY=1;exitDx=0;exitDy=0;entryX=0.5;entryY=0;entryDx=0;entryDy=0;labelBackgroundColor=default;strokeColor=default;align=center;verticalAlign=middle;fontFamily=Helvetica;fontSize=11;fontColor=default;endArrow=classic;exitPerimeter=0;" parent="ymZMIOoLE_UaPyQV4W8x-1" source="ymZMIOoLE_UaPyQV4W8x-31" target="ymZMIOoLE_UaPyQV4W8x-24" edge="1">
          <mxGeometry relative="1" as="geometry">
            <Array as="points">
              <mxPoint x="-810" y="240" />
              <mxPoint x="-860" y="240" />
            </Array>
          </mxGeometry>
        </mxCell>
        <mxCell id="Tu3ARp0lV0yLjuxXfmdZ-0" style="edgeStyle=orthogonalEdgeStyle;shape=connector;rounded=0;jumpStyle=arc;orthogonalLoop=1;jettySize=auto;html=1;exitX=0.67;exitY=1;exitDx=0;exitDy=0;entryX=0.4;entryY=0;entryDx=0;entryDy=0;labelBackgroundColor=default;strokeColor=default;align=center;verticalAlign=middle;fontFamily=Helvetica;fontSize=11;fontColor=default;endArrow=classic;exitPerimeter=0;entryPerimeter=0;" parent="ymZMIOoLE_UaPyQV4W8x-1" source="ymZMIOoLE_UaPyQV4W8x-31" target="ymZMIOoLE_UaPyQV4W8x-18" edge="1">
          <mxGeometry relative="1" as="geometry">
            <Array as="points">
              <mxPoint x="-770" y="520" />
              <mxPoint x="-232" y="520" />
            </Array>
          </mxGeometry>
        </mxCell>
        <mxCell id="0qum00yRcTYJnj8lrS7l-10" style="edgeStyle=elbowEdgeStyle;shape=connector;rounded=0;jumpStyle=arc;orthogonalLoop=1;jettySize=auto;html=1;exitX=0.5;exitY=1;exitDx=0;exitDy=0;entryX=0.25;entryY=0;entryDx=0;entryDy=0;labelBackgroundColor=default;strokeColor=default;align=center;verticalAlign=middle;fontFamily=Helvetica;fontSize=11;fontColor=default;endArrow=classic;exitPerimeter=0;elbow=vertical;" parent="ymZMIOoLE_UaPyQV4W8x-1" source="ymZMIOoLE_UaPyQV4W8x-31" target="ymZMIOoLE_UaPyQV4W8x-14" edge="1">
          <mxGeometry relative="1" as="geometry">
            <Array as="points">
              <mxPoint x="-540" y="560" />
            </Array>
          </mxGeometry>
        </mxCell>
        <mxCell id="0qum00yRcTYJnj8lrS7l-11" style="edgeStyle=orthogonalEdgeStyle;shape=connector;rounded=0;jumpStyle=arc;orthogonalLoop=1;jettySize=auto;html=1;entryX=0.25;entryY=0;entryDx=0;entryDy=0;labelBackgroundColor=default;strokeColor=default;align=center;verticalAlign=middle;fontFamily=Helvetica;fontSize=11;fontColor=default;endArrow=classic;exitX=0.83;exitY=1;exitDx=0;exitDy=0;exitPerimeter=0;" parent="ymZMIOoLE_UaPyQV4W8x-1" source="ymZMIOoLE_UaPyQV4W8x-31" target="ymZMIOoLE_UaPyQV4W8x-7" edge="1">
          <mxGeometry relative="1" as="geometry">
            <Array as="points">
              <mxPoint x="-750" y="220" />
              <mxPoint x="-690" y="220" />
            </Array>
            <mxPoint x="-590" y="320" as="sourcePoint" />
          </mxGeometry>
        </mxCell>
        <mxCell id="ymZMIOoLE_UaPyQV4W8x-31" value="ARE YOU NOT ENTERTAINED" style="rounded=1;whiteSpace=wrap;html=1;fillColor=#e6d0de;strokeColor=#996185;gradientColor=#d5739d;fontColor=#000000;points=[[0,0,0,0,0],[0,0.25,0,0,0],[0,0.5,0,0,0],[0,0.75,0,0,0],[0,1,0,0,0],[0.16,1,0,0,0],[0.25,0,0,0,0],[0.33,1,0,0,0],[0.5,0,0,0,0],[0.5,1,0,0,0],[0.67,1,0,0,0],[0.75,0,0,0,0],[0.83,1,0,0,0],[1,0,0,0,0],[1,0.25,0,0,0],[1,0.5,0,0,0],[1,0.75,0,0,0],[1,1,0,0,0]];" parent="ymZMIOoLE_UaPyQV4W8x-1" vertex="1">
          <mxGeometry x="-850" y="140" width="120" height="60" as="geometry" />
        </mxCell>
        <mxCell id="lDXFYdPBkvEPl9tQAfWs-2" style="edgeStyle=orthogonalEdgeStyle;shape=connector;rounded=0;jumpStyle=arc;orthogonalLoop=1;jettySize=auto;html=1;exitX=0.5;exitY=1;exitDx=0;exitDy=0;entryX=0.75;entryY=0;entryDx=0;entryDy=0;labelBackgroundColor=default;strokeColor=default;align=center;verticalAlign=middle;fontFamily=Helvetica;fontSize=11;fontColor=default;endArrow=classic;entryPerimeter=0;" parent="ymZMIOoLE_UaPyQV4W8x-1" source="ymZMIOoLE_UaPyQV4W8x-32" target="ymZMIOoLE_UaPyQV4W8x-31" edge="1">
          <mxGeometry relative="1" as="geometry" />
        </mxCell>
        <mxCell id="ymZMIOoLE_UaPyQV4W8x-32" value="SWEET TOOTH" style="rounded=1;whiteSpace=wrap;html=1;fillColor=#e6d0de;strokeColor=#996185;gradientColor=#d5739d;fontColor=#000000;" parent="ymZMIOoLE_UaPyQV4W8x-1" vertex="1">
          <mxGeometry x="-820" width="120" height="60" as="geometry" />
        </mxCell>
        <mxCell id="Tu3ARp0lV0yLjuxXfmdZ-2" style="edgeStyle=orthogonalEdgeStyle;shape=connector;rounded=0;jumpStyle=arc;orthogonalLoop=1;jettySize=auto;html=1;exitX=0.16;exitY=1;exitDx=0;exitDy=0;entryX=0.5;entryY=0;entryDx=0;entryDy=0;labelBackgroundColor=default;strokeColor=default;align=center;verticalAlign=middle;fontFamily=Helvetica;fontSize=11;fontColor=default;endArrow=classic;exitPerimeter=0;" parent="ymZMIOoLE_UaPyQV4W8x-1" source="ymZMIOoLE_UaPyQV4W8x-31" target="ymZMIOoLE_UaPyQV4W8x-26" edge="1">
          <mxGeometry relative="1" as="geometry">
            <Array as="points">
              <mxPoint x="-831" y="220" />
              <mxPoint x="-1020" y="220" />
            </Array>
          </mxGeometry>
        </mxCell>
        <mxCell id="0qum00yRcTYJnj8lrS7l-3" style="edgeStyle=elbowEdgeStyle;shape=connector;rounded=0;jumpStyle=arc;orthogonalLoop=1;jettySize=auto;html=1;exitX=0.5;exitY=1;exitDx=0;exitDy=0;entryX=0.25;entryY=0;entryDx=0;entryDy=0;labelBackgroundColor=default;strokeColor=default;align=center;verticalAlign=middle;fontFamily=Helvetica;fontSize=11;fontColor=default;endArrow=classic;elbow=vertical;exitPerimeter=0;" parent="ymZMIOoLE_UaPyQV4W8x-1" source="0qum00yRcTYJnj8lrS7l-1" target="ymZMIOoLE_UaPyQV4W8x-9" edge="1">
          <mxGeometry relative="1" as="geometry">
            <Array as="points">
              <mxPoint x="-1160" y="-280" />
            </Array>
          </mxGeometry>
        </mxCell>
        <mxCell id="0qum00yRcTYJnj8lrS7l-5" style="edgeStyle=orthogonalEdgeStyle;shape=connector;rounded=0;jumpStyle=arc;orthogonalLoop=1;jettySize=auto;html=1;exitX=0.62;exitY=1;exitDx=0;exitDy=0;labelBackgroundColor=default;strokeColor=default;align=center;verticalAlign=middle;fontFamily=Helvetica;fontSize=11;fontColor=default;endArrow=classic;exitPerimeter=0;entryX=0.5;entryY=0;entryDx=0;entryDy=0;" parent="ymZMIOoLE_UaPyQV4W8x-1" source="0qum00yRcTYJnj8lrS7l-1" target="0qum00yRcTYJnj8lrS7l-4" edge="1">
          <mxGeometry relative="1" as="geometry">
            <Array as="points">
              <mxPoint x="-1160" y="-350" />
              <mxPoint x="-1160" y="-300" />
              <mxPoint x="-1050" y="-300" />
            </Array>
          </mxGeometry>
        </mxCell>
        <mxCell id="0qum00yRcTYJnj8lrS7l-8" style="edgeStyle=orthogonalEdgeStyle;shape=connector;rounded=0;jumpStyle=arc;orthogonalLoop=1;jettySize=auto;html=1;exitX=0.37;exitY=1;exitDx=0;exitDy=0;entryX=0.5;entryY=0;entryDx=0;entryDy=0;labelBackgroundColor=default;strokeColor=default;align=center;verticalAlign=middle;fontFamily=Helvetica;fontSize=11;fontColor=default;endArrow=classic;exitPerimeter=0;" parent="ymZMIOoLE_UaPyQV4W8x-1" source="0qum00yRcTYJnj8lrS7l-1" target="0qum00yRcTYJnj8lrS7l-7" edge="1">
          <mxGeometry relative="1" as="geometry" />
        </mxCell>
        <mxCell id="0qum00yRcTYJnj8lrS7l-1" value="PLAZA" style="rounded=0;whiteSpace=wrap;html=1;fillColor=#1ba1e2;strokeColor=#006EAF;fontColor=#ffffff;points=[[0,0,0,0,0],[0,0.25,0,0,0],[0,0.5,0,0,0],[0,0.75,0,0,0],[0,1,0,0,0],[0.12,1,0,0,0],[0.25,0,0,0,0],[0.25,1,0,0,0],[0.37,1,0,0,0],[0.5,0,0,0,0],[0.5,1,0,0,0],[0.62,1,0,0,0],[0.75,0,0,0,0],[0.75,1,0,0,0],[0.87,1,0,0,0],[1,0,0,0,0],[1,0.25,0,0,0],[1,0.5,0,0,0],[1,0.75,0,0,0],[1,1,0,0,0]];" parent="ymZMIOoLE_UaPyQV4W8x-1" vertex="1">
          <mxGeometry x="-1320" y="-450" width="240" height="100" as="geometry" />
        </mxCell>
        <mxCell id="0qum00yRcTYJnj8lrS7l-4" value="BRIDGE TO TEMPLE" style="rounded=0;whiteSpace=wrap;html=1;fillColor=#1ba1e2;strokeColor=#006EAF;fontColor=#ffffff;" parent="ymZMIOoLE_UaPyQV4W8x-1" vertex="1">
          <mxGeometry x="-1110" y="-220" width="120" height="60" as="geometry" />
        </mxCell>
        <mxCell id="0qum00yRcTYJnj8lrS7l-6" style="edgeStyle=orthogonalEdgeStyle;shape=connector;rounded=0;jumpStyle=arc;orthogonalLoop=1;jettySize=auto;html=1;exitX=0.5;exitY=1;exitDx=0;exitDy=0;entryX=0.328;entryY=0;entryDx=0;entryDy=0;entryPerimeter=0;labelBackgroundColor=default;strokeColor=default;align=center;verticalAlign=middle;fontFamily=Helvetica;fontSize=11;fontColor=default;endArrow=classic;" parent="ymZMIOoLE_UaPyQV4W8x-1" source="0qum00yRcTYJnj8lrS7l-4" target="ymZMIOoLE_UaPyQV4W8x-32" edge="1">
          <mxGeometry relative="1" as="geometry">
            <Array as="points">
              <mxPoint x="-1050" y="-60" />
              <mxPoint x="-781" y="-60" />
            </Array>
          </mxGeometry>
        </mxCell>
        <mxCell id="0qum00yRcTYJnj8lrS7l-9" style="edgeStyle=elbowEdgeStyle;shape=connector;rounded=0;jumpStyle=arc;orthogonalLoop=1;jettySize=auto;html=1;entryX=0.25;entryY=0;entryDx=0;entryDy=0;labelBackgroundColor=default;strokeColor=default;align=center;verticalAlign=middle;fontFamily=Helvetica;fontSize=11;fontColor=default;endArrow=classic;elbow=vertical;exitX=0.4;exitY=1;exitDx=0;exitDy=0;exitPerimeter=0;" parent="ymZMIOoLE_UaPyQV4W8x-1" source="0qum00yRcTYJnj8lrS7l-7" target="ymZMIOoLE_UaPyQV4W8x-11" edge="1">
          <mxGeometry relative="1" as="geometry">
            <mxPoint x="-1240" y="270" as="sourcePoint" />
          </mxGeometry>
        </mxCell>
        <mxCell id="0qum00yRcTYJnj8lrS7l-7" value="BAR-CAFÉ" style="rounded=0;whiteSpace=wrap;html=1;fillColor=#1ba1e2;strokeColor=#006EAF;fontColor=#ffffff;points=[[0,0,0,0,0],[0,0.25,0,0,0],[0,0.5,0,0,0],[0,0.75,0,0,0],[0,1,0,0,0],[0.2,1,0,0,0],[0.25,0,0,0,0],[0.4,1,0,0,0],[0.5,0,0,0,0],[0.6,1,0,0,0],[0.75,0,0,0,0],[0.8,1,0,0,0],[1,0,0,0,0],[1,0.25,0,0,0],[1,0.5,0,0,0],[1,0.75,0,0,0],[1,1,0,0,0]];" parent="ymZMIOoLE_UaPyQV4W8x-1" vertex="1">
          <mxGeometry x="-1320" y="-220" width="120" height="60" as="geometry" />
        </mxCell>
        <mxCell id="0qum00yRcTYJnj8lrS7l-14" style="edgeStyle=orthogonalEdgeStyle;shape=connector;rounded=0;jumpStyle=arc;orthogonalLoop=1;jettySize=auto;html=1;exitX=0.5;exitY=1;exitDx=0;exitDy=0;labelBackgroundColor=default;strokeColor=#66B2FF;align=center;verticalAlign=middle;fontFamily=Helvetica;fontSize=11;fontColor=default;endArrow=doubleBlock;endFill=1;entryX=0.25;entryY=0;entryDx=0;entryDy=0;" parent="ymZMIOoLE_UaPyQV4W8x-1" source="0qum00yRcTYJnj8lrS7l-13" target="ymZMIOoLE_UaPyQV4W8x-20" edge="1">
          <mxGeometry relative="1" as="geometry">
            <mxPoint x="-540" y="770" as="targetPoint" />
            <Array as="points">
              <mxPoint x="-1380" y="580" />
              <mxPoint x="-650" y="580" />
            </Array>
          </mxGeometry>
        </mxCell>
        <mxCell id="0qum00yRcTYJnj8lrS7l-13" value="ZADKIEL&#39;S ROOM/ BAPHOMET&#39;S ROOM" style="rounded=0;whiteSpace=wrap;html=1;fillColor=#1ba1e2;strokeColor=#006EAF;fontColor=#ffffff;" parent="ymZMIOoLE_UaPyQV4W8x-1" vertex="1">
          <mxGeometry x="-1440" width="120" height="60" as="geometry" />
        </mxCell>
        <mxCell id="TQcrhEMOB_y6SZEUR-y6-1" style="edgeStyle=orthogonalEdgeStyle;shape=connector;rounded=0;jumpStyle=arc;orthogonalLoop=1;jettySize=auto;html=1;exitX=0.25;exitY=1;exitDx=0;exitDy=0;entryX=0.5;entryY=0;entryDx=0;entryDy=0;labelBackgroundColor=default;strokeColor=default;align=center;verticalAlign=middle;fontFamily=Helvetica;fontSize=11;fontColor=default;endArrow=classic;" parent="ymZMIOoLE_UaPyQV4W8x-1" source="TQcrhEMOB_y6SZEUR-y6-0" target="ymZMIOoLE_UaPyQV4W8x-21" edge="1">
          <mxGeometry relative="1" as="geometry">
            <Array as="points">
              <mxPoint x="-700" y="-620" />
              <mxPoint x="-890" y="-620" />
            </Array>
          </mxGeometry>
        </mxCell>
        <mxCell id="TQcrhEMOB_y6SZEUR-y6-2" style="edgeStyle=orthogonalEdgeStyle;shape=connector;rounded=0;jumpStyle=arc;orthogonalLoop=1;jettySize=auto;html=1;exitX=0.5;exitY=1;exitDx=0;exitDy=0;entryX=0.75;entryY=0;entryDx=0;entryDy=0;labelBackgroundColor=default;strokeColor=#66B2FF;align=center;verticalAlign=middle;fontFamily=Helvetica;fontSize=11;fontColor=default;endArrow=doubleBlock;endFill=1;" parent="ymZMIOoLE_UaPyQV4W8x-1" source="TQcrhEMOB_y6SZEUR-y6-0" target="ymZMIOoLE_UaPyQV4W8x-7" edge="1">
          <mxGeometry relative="1" as="geometry">
            <Array as="points">
              <mxPoint x="-670" y="140" />
              <mxPoint x="-630" y="140" />
            </Array>
          </mxGeometry>
        </mxCell>
        <mxCell id="TQcrhEMOB_y6SZEUR-y6-0" value="PURGATORY" style="rounded=0;whiteSpace=wrap;html=1;fillColor=#1ba1e2;strokeColor=#006EAF;fontColor=#ffffff;" parent="ymZMIOoLE_UaPyQV4W8x-1" vertex="1">
          <mxGeometry x="-730" y="-730" width="120" height="60" as="geometry" />
        </mxCell>
        <mxCell id="f2ULgr7aXU11di6HYDnU-1" style="edgeStyle=orthogonalEdgeStyle;rounded=0;orthogonalLoop=1;jettySize=auto;html=1;exitX=0.8;exitY=1;exitDx=0;exitDy=0;exitPerimeter=0;entryX=0.2;entryY=0;entryDx=0;entryDy=0;endArrow=doubleBlock;endFill=1;entryPerimeter=0;jumpStyle=arc;strokeColor=#66B2FF;" parent="ymZMIOoLE_UaPyQV4W8x-1" source="mXYY86w4VDz8p7bma4ql-0" target="ymZMIOoLE_UaPyQV4W8x-5" edge="1">
          <mxGeometry relative="1" as="geometry">
            <Array as="points">
              <mxPoint x="-1464" y="710" />
              <mxPoint x="-806" y="710" />
            </Array>
          </mxGeometry>
        </mxCell>
        <mxCell id="f2ULgr7aXU11di6HYDnU-3" style="edgeStyle=orthogonalEdgeStyle;rounded=0;orthogonalLoop=1;jettySize=auto;html=1;exitX=0.2;exitY=1;exitDx=0;exitDy=0;exitPerimeter=0;entryX=0.25;entryY=0;entryDx=0;entryDy=0;" parent="ymZMIOoLE_UaPyQV4W8x-1" source="mXYY86w4VDz8p7bma4ql-0" target="f2ULgr7aXU11di6HYDnU-2" edge="1">
          <mxGeometry relative="1" as="geometry">
            <Array as="points">
              <mxPoint x="-1536" y="1120" />
              <mxPoint x="-920" y="1120" />
            </Array>
          </mxGeometry>
        </mxCell>
        <mxCell id="mXYY86w4VDz8p7bma4ql-0" value="GARDEN" style="rounded=0;whiteSpace=wrap;html=1;fillColor=#1ba1e2;strokeColor=#006EAF;fontColor=#ffffff;points=[[0,0,0,0,0],[0,0.25,0,0,0],[0,0.5,0,0,0],[0,0.75,0,0,0],[0,1,0,0,0],[0.2,1,0,0,0],[0.25,0,0,0,0],[0.4,1,0,0,0],[0.5,0,0,0,0],[0.6,1,0,0,0],[0.75,0,0,0,0],[0.8,1,0,0,0],[1,0,0,0,0],[1,0.25,0,0,0],[1,0.5,0,0,0],[1,0.75,0,0,0],[1,1,0,0,0]];" parent="ymZMIOoLE_UaPyQV4W8x-1" vertex="1">
          <mxGeometry x="-1560" y="320" width="120" height="60" as="geometry" />
        </mxCell>
        <mxCell id="f2ULgr7aXU11di6HYDnU-0" style="edgeStyle=orthogonalEdgeStyle;rounded=0;orthogonalLoop=1;jettySize=auto;html=1;exitX=0.12;exitY=1;exitDx=0;exitDy=0;entryX=0.5;entryY=0;entryDx=0;entryDy=0;exitPerimeter=0;" parent="ymZMIOoLE_UaPyQV4W8x-1" source="0qum00yRcTYJnj8lrS7l-1" target="f2ULgr7aXU11di6HYDnU-14" edge="1">
          <mxGeometry relative="1" as="geometry">
            <Array as="points">
              <mxPoint x="-1291" y="-330" />
              <mxPoint x="-1500" y="-330" />
            </Array>
          </mxGeometry>
        </mxCell>
        <mxCell id="f2ULgr7aXU11di6HYDnU-2" value="EGG-CELLENT IDEA" style="rounded=1;whiteSpace=wrap;html=1;fillColor=#e6d0de;strokeColor=#996185;gradientColor=#d5739d;fontColor=#000000;glass=0;" parent="ymZMIOoLE_UaPyQV4W8x-1" vertex="1">
          <mxGeometry x="-950" y="1169" width="120" height="60" as="geometry" />
        </mxCell>
        <mxCell id="f2ULgr7aXU11di6HYDnU-7" style="edgeStyle=orthogonalEdgeStyle;rounded=0;orthogonalLoop=1;jettySize=auto;html=1;exitX=0.5;exitY=1;exitDx=0;exitDy=0;" parent="ymZMIOoLE_UaPyQV4W8x-1" source="f2ULgr7aXU11di6HYDnU-5" target="ymZMIOoLE_UaPyQV4W8x-27" edge="1">
          <mxGeometry relative="1" as="geometry" />
        </mxCell>
        <mxCell id="f2ULgr7aXU11di6HYDnU-5" value="KEY TO KNOWLEDGE" style="rounded=1;whiteSpace=wrap;html=1;fillColor=#e6d0de;strokeColor=#996185;gradientColor=#d5739d;fontColor=#000000;" parent="ymZMIOoLE_UaPyQV4W8x-1" vertex="1">
          <mxGeometry x="-280" y="140" width="120" height="60" as="geometry" />
        </mxCell>
        <mxCell id="f2ULgr7aXU11di6HYDnU-8" style="edgeStyle=orthogonalEdgeStyle;rounded=0;orthogonalLoop=1;jettySize=auto;html=1;exitX=0.6;exitY=1;exitDx=0;exitDy=0;entryX=0.25;entryY=0;entryDx=0;entryDy=0;entryPerimeter=0;endArrow=doubleBlock;endFill=1;exitPerimeter=0;jumpStyle=arc;strokeColor=#66B2FF;" parent="ymZMIOoLE_UaPyQV4W8x-1" source="0qum00yRcTYJnj8lrS7l-7" target="ymZMIOoLE_UaPyQV4W8x-31" edge="1">
          <mxGeometry relative="1" as="geometry">
            <Array as="points">
              <mxPoint x="-1248" y="100" />
              <mxPoint x="-820" y="100" />
            </Array>
          </mxGeometry>
        </mxCell>
        <mxCell id="f2ULgr7aXU11di6HYDnU-12" style="edgeStyle=orthogonalEdgeStyle;rounded=0;orthogonalLoop=1;jettySize=auto;html=1;exitX=0.5;exitY=1;exitDx=0;exitDy=0;exitPerimeter=0;entryX=0.5;entryY=0;entryDx=0;entryDy=0;" parent="ymZMIOoLE_UaPyQV4W8x-1" source="f2ULgr7aXU11di6HYDnU-9" target="0qum00yRcTYJnj8lrS7l-13" edge="1">
          <mxGeometry relative="1" as="geometry" />
        </mxCell>
        <mxCell id="f2ULgr7aXU11di6HYDnU-9" value="TUBULAR BELLS" style="rounded=1;whiteSpace=wrap;html=1;fillColor=#e6d0de;strokeColor=#996185;gradientColor=#d5739d;fontColor=#000000;points=[[0,0,0,0,0],[0,0.25,0,0,0],[0,0.5,0,0,0],[0,0.75,0,0,0],[0,1,0,0,0],[0.2,0,0,0,0],[0.25,1,0,0,0],[0.4,0,0,0,0],[0.5,1,0,0,0],[0.6,0,0,0,0],[0.75,1,0,0,0],[0.8,0,0,0,0],[1,0,0,0,0],[1,0.25,0,0,0],[1,0.5,0,0,0],[1,0.75,0,0,0],[1,1,0,0,0]];" parent="ymZMIOoLE_UaPyQV4W8x-1" vertex="1">
          <mxGeometry x="-1440" y="-100" width="120" height="60" as="geometry" />
        </mxCell>
        <mxCell id="f2ULgr7aXU11di6HYDnU-10" style="edgeStyle=orthogonalEdgeStyle;rounded=0;orthogonalLoop=1;jettySize=auto;html=1;entryX=0.4;entryY=0;entryDx=0;entryDy=0;entryPerimeter=0;jumpStyle=arc;exitX=0.25;exitY=1;exitDx=0;exitDy=0;exitPerimeter=0;" parent="ymZMIOoLE_UaPyQV4W8x-1" source="0qum00yRcTYJnj8lrS7l-1" target="f2ULgr7aXU11di6HYDnU-9" edge="1">
          <mxGeometry relative="1" as="geometry">
            <mxPoint x="-960" y="80" as="sourcePoint" />
            <Array as="points">
              <mxPoint x="-1260" y="-300" />
              <mxPoint x="-1392" y="-300" />
            </Array>
          </mxGeometry>
        </mxCell>
        <mxCell id="f2ULgr7aXU11di6HYDnU-11" style="edgeStyle=orthogonalEdgeStyle;rounded=0;orthogonalLoop=1;jettySize=auto;html=1;exitX=0.2;exitY=1;exitDx=0;exitDy=0;entryX=0.6;entryY=0;entryDx=0;entryDy=0;entryPerimeter=0;endArrow=doubleBlock;endFill=1;jumpStyle=arc;exitPerimeter=0;strokeColor=#66B2FF;" parent="ymZMIOoLE_UaPyQV4W8x-1" source="0qum00yRcTYJnj8lrS7l-7" target="f2ULgr7aXU11di6HYDnU-9" edge="1">
          <mxGeometry relative="1" as="geometry" />
        </mxCell>
        <mxCell id="f2ULgr7aXU11di6HYDnU-14" value="BRIDGE TO GARDEN" style="rounded=0;whiteSpace=wrap;html=1;fillColor=#1ba1e2;strokeColor=#006EAF;fontColor=#ffffff;" parent="ymZMIOoLE_UaPyQV4W8x-1" vertex="1">
          <mxGeometry x="-1560" y="-220" width="120" height="60" as="geometry" />
        </mxCell>
        <mxCell id="f2ULgr7aXU11di6HYDnU-15" value="BRIDGE TO LIBRARY" style="rounded=0;whiteSpace=wrap;html=1;fillColor=#1ba1e2;strokeColor=#006EAF;fontColor=#ffffff;" parent="ymZMIOoLE_UaPyQV4W8x-1" vertex="1">
          <mxGeometry x="-960" y="-220" width="120" height="60" as="geometry" />
        </mxCell>
        <mxCell id="f2ULgr7aXU11di6HYDnU-16" style="edgeStyle=orthogonalEdgeStyle;shape=connector;rounded=0;jumpStyle=arc;orthogonalLoop=1;jettySize=auto;html=1;exitX=0.5;exitY=1;exitDx=0;exitDy=0;entryX=0.5;entryY=0;entryDx=0;entryDy=0;entryPerimeter=0;labelBackgroundColor=default;strokeColor=default;align=center;verticalAlign=middle;fontFamily=Helvetica;fontSize=11;fontColor=default;endArrow=classic;endFill=1;" parent="ymZMIOoLE_UaPyQV4W8x-1" source="f2ULgr7aXU11di6HYDnU-14" target="mXYY86w4VDz8p7bma4ql-0" edge="1">
          <mxGeometry relative="1" as="geometry" />
        </mxCell>
        <mxCell id="f2ULgr7aXU11di6HYDnU-17" style="edgeStyle=orthogonalEdgeStyle;shape=connector;rounded=0;jumpStyle=arc;orthogonalLoop=1;jettySize=auto;html=1;exitX=0.5;exitY=1;exitDx=0;exitDy=0;labelBackgroundColor=default;strokeColor=default;align=center;verticalAlign=middle;fontFamily=Helvetica;fontSize=11;fontColor=default;endArrow=classic;endFill=1;entryX=0.25;entryY=0;entryDx=0;entryDy=0;" parent="ymZMIOoLE_UaPyQV4W8x-1" source="f2ULgr7aXU11di6HYDnU-15" target="f2ULgr7aXU11di6HYDnU-5" edge="1">
          <mxGeometry relative="1" as="geometry">
            <Array as="points">
              <mxPoint x="-900" y="-120" />
              <mxPoint x="-250" y="-120" />
            </Array>
            <mxPoint x="-300" y="30" as="targetPoint" />
          </mxGeometry>
        </mxCell>
        <mxCell id="0qum00yRcTYJnj8lrS7l-12" style="edgeStyle=orthogonalEdgeStyle;shape=connector;rounded=0;jumpStyle=arc;orthogonalLoop=1;jettySize=auto;html=1;entryX=0.75;entryY=0;entryDx=0;entryDy=0;labelBackgroundColor=default;strokeColor=default;align=center;verticalAlign=middle;fontFamily=Helvetica;fontSize=11;fontColor=default;endArrow=classic;exitX=0.5;exitY=1;exitDx=0;exitDy=0;" parent="ymZMIOoLE_UaPyQV4W8x-1" source="ymZMIOoLE_UaPyQV4W8x-28" target="ymZMIOoLE_UaPyQV4W8x-20" edge="1">
          <mxGeometry relative="1" as="geometry">
            <mxPoint x="140" y="610" as="sourcePoint" />
            <Array as="points">
              <mxPoint x="-30" y="900" />
              <mxPoint x="-590" y="900" />
            </Array>
          </mxGeometry>
        </mxCell>
        <mxCell id="TQcrhEMOB_y6SZEUR-y6-6" style="edgeStyle=orthogonalEdgeStyle;shape=connector;rounded=0;jumpStyle=arc;orthogonalLoop=1;jettySize=auto;html=1;exitX=0.8;exitY=1;exitDx=0;exitDy=0;labelBackgroundColor=default;strokeColor=#66B2FF;align=center;verticalAlign=middle;fontFamily=Helvetica;fontSize=11;fontColor=default;endArrow=doubleBlock;endFill=1;exitPerimeter=0;entryX=0.2;entryY=0;entryDx=0;entryDy=0;entryPerimeter=0;" parent="ymZMIOoLE_UaPyQV4W8x-1" source="ymZMIOoLE_UaPyQV4W8x-26" target="ymZMIOoLE_UaPyQV4W8x-18" edge="1">
          <mxGeometry relative="1" as="geometry">
            <mxPoint x="-320" y="690" as="targetPoint" />
            <Array as="points">
              <mxPoint x="-984" y="540" />
              <mxPoint x="-256" y="540" />
            </Array>
          </mxGeometry>
        </mxCell>
        <mxCell id="0qum00yRcTYJnj8lrS7l-0" style="edgeStyle=elbowEdgeStyle;shape=connector;rounded=0;jumpStyle=arc;orthogonalLoop=1;jettySize=auto;html=1;entryX=0.75;entryY=0;entryDx=0;entryDy=0;labelBackgroundColor=default;strokeColor=#66B2FF;align=center;verticalAlign=middle;fontFamily=Helvetica;fontSize=11;fontColor=default;endArrow=doubleBlock;endFill=1;exitX=0.2;exitY=1;exitDx=0;exitDy=0;elbow=vertical;exitPerimeter=0;" parent="ymZMIOoLE_UaPyQV4W8x-1" source="ymZMIOoLE_UaPyQV4W8x-26" target="ymZMIOoLE_UaPyQV4W8x-11" edge="1">
          <mxGeometry relative="1" as="geometry">
            <mxPoint x="-790" y="530" as="sourcePoint" />
            <Array as="points">
              <mxPoint x="-1140" y="400" />
            </Array>
          </mxGeometry>
        </mxCell>
        <mxCell id="f2ULgr7aXU11di6HYDnU-13" style="edgeStyle=orthogonalEdgeStyle;shape=connector;rounded=0;jumpStyle=arc;orthogonalLoop=1;jettySize=auto;html=1;exitX=0.75;exitY=1;exitDx=0;exitDy=0;entryX=0.75;entryY=0;entryDx=0;entryDy=0;labelBackgroundColor=default;strokeColor=#66B2FF;align=center;verticalAlign=middle;fontFamily=Helvetica;fontSize=11;fontColor=default;endArrow=doubleBlock;endFill=1;" parent="ymZMIOoLE_UaPyQV4W8x-1" source="TQcrhEMOB_y6SZEUR-y6-0" target="f2ULgr7aXU11di6HYDnU-5" edge="1">
          <mxGeometry relative="1" as="geometry">
            <Array as="points">
              <mxPoint x="-640" y="-620" />
              <mxPoint x="-190" y="-620" />
            </Array>
          </mxGeometry>
        </mxCell>
        <mxCell id="-rTrNsYYwVR4Nb8Lqfvv-1" style="edgeStyle=orthogonalEdgeStyle;rounded=0;orthogonalLoop=1;jettySize=auto;html=1;exitX=0.87;exitY=1;exitDx=0;exitDy=0;entryX=0.5;entryY=0;entryDx=0;entryDy=0;exitPerimeter=0;" parent="ymZMIOoLE_UaPyQV4W8x-1" source="0qum00yRcTYJnj8lrS7l-1" target="ymZMIOoLE_UaPyQV4W8x-28" edge="1">
          <mxGeometry relative="1" as="geometry">
            <Array as="points">
              <mxPoint x="-1111" y="-330" />
              <mxPoint x="-30" y="-330" />
            </Array>
            <mxPoint x="-1122" y="-330" as="sourcePoint" />
            <mxPoint x="-890" y="-210" as="targetPoint" />
          </mxGeometry>
        </mxCell>
        <mxCell id="y4ROh2YVIWSlx0f_4qvK-22" value="" style="group" vertex="1" connectable="0" parent="ymZMIOoLE_UaPyQV4W8x-1">
          <mxGeometry x="-1860" y="-860" width="320" height="336" as="geometry" />
        </mxCell>
        <mxCell id="y4ROh2YVIWSlx0f_4qvK-16" value="Legend" style="rounded=0;whiteSpace=wrap;html=1;labelPosition=center;verticalLabelPosition=middle;align=center;verticalAlign=top;fontStyle=4;fontSize=24;strokeWidth=2;glass=0;" vertex="1" parent="y4ROh2YVIWSlx0f_4qvK-22">
          <mxGeometry width="320" height="336" as="geometry" />
        </mxCell>
        <mxCell id="y4ROh2YVIWSlx0f_4qvK-0" value="Unlocks quest" style="rounded=0;orthogonalLoop=1;jettySize=auto;html=1;exitX=1;exitY=0.5;exitDx=0;exitDy=0;exitPerimeter=0;entryX=0;entryY=0.5;entryDx=0;entryDy=0;labelPosition=center;verticalLabelPosition=top;align=center;verticalAlign=bottom;" edge="1" parent="y4ROh2YVIWSlx0f_4qvK-22" source="y4ROh2YVIWSlx0f_4qvK-6" target="y4ROh2YVIWSlx0f_4qvK-7">
          <mxGeometry relative="1" as="geometry">
            <mxPoint x="120" y="156" as="sourcePoint" />
            <mxPoint x="180" y="156" as="targetPoint" />
          </mxGeometry>
        </mxCell>
        <mxCell id="y4ROh2YVIWSlx0f_4qvK-1" value="Required to complete" style="rounded=0;orthogonalLoop=1;jettySize=auto;html=1;endArrow=doubleBlock;endFill=1;jumpStyle=arc;strokeColor=#66B2FF;labelPosition=center;verticalLabelPosition=top;align=center;verticalAlign=bottom;exitX=1;exitY=0.5;exitDx=0;exitDy=0;exitPerimeter=0;entryX=0;entryY=0.5;entryDx=0;entryDy=0;" edge="1" parent="y4ROh2YVIWSlx0f_4qvK-22" source="y4ROh2YVIWSlx0f_4qvK-13" target="y4ROh2YVIWSlx0f_4qvK-14">
          <mxGeometry relative="1" as="geometry">
            <mxPoint x="130" y="300.58000000000004" as="sourcePoint" />
            <mxPoint x="190" y="300.58000000000004" as="targetPoint" />
          </mxGeometry>
        </mxCell>
        <mxCell id="y4ROh2YVIWSlx0f_4qvK-2" value="QUEST" style="rounded=1;whiteSpace=wrap;html=1;fillColor=#e6d0de;strokeColor=#996185;gradientColor=#d5739d;fontColor=#000000;" vertex="1" parent="y4ROh2YVIWSlx0f_4qvK-22">
          <mxGeometry x="20" y="76" width="80" height="30" as="geometry" />
        </mxCell>
        <mxCell id="y4ROh2YVIWSlx0f_4qvK-3" value="LOCATION" style="rounded=0;whiteSpace=wrap;html=1;fillColor=#1ba1e2;strokeColor=#006EAF;fontColor=#ffffff;points=[[0,0,0,0,0],[0,0.25,0,0,0],[0,0.5,0,0,0],[0,0.75,0,0,0],[0,1,0,0,0],[0.12,1,0,0,0],[0.25,0,0,0,0],[0.25,1,0,0,0],[0.37,1,0,0,0],[0.5,0,0,0,0],[0.5,1,0,0,0],[0.62,1,0,0,0],[0.75,0,0,0,0],[0.75,1,0,0,0],[0.87,1,0,0,0],[1,0,0,0,0],[1,0.25,0,0,0],[1,0.5,0,0,0],[1,0.75,0,0,0],[1,1,0,0,0]];" vertex="1" parent="y4ROh2YVIWSlx0f_4qvK-22">
          <mxGeometry x="220" y="76" width="80" height="30" as="geometry" />
        </mxCell>
        <mxCell id="y4ROh2YVIWSlx0f_4qvK-6" value="LOCATION" style="rounded=0;whiteSpace=wrap;html=1;fillColor=#1ba1e2;strokeColor=#006EAF;fontColor=#ffffff;points=[[0,0,0,0,0],[0,0.25,0,0,0],[0,0.5,0,0,0],[0,0.75,0,0,0],[0,1,0,0,0],[0.12,1,0,0,0],[0.25,0,0,0,0],[0.25,1,0,0,0],[0.37,1,0,0,0],[0.5,0,0,0,0],[0.5,1,0,0,0],[0.62,1,0,0,0],[0.75,0,0,0,0],[0.75,1,0,0,0],[0.87,1,0,0,0],[1,0,0,0,0],[1,0.25,0,0,0],[1,0.5,0,0,0],[1,0.75,0,0,0],[1,1,0,0,0]];" vertex="1" parent="y4ROh2YVIWSlx0f_4qvK-22">
          <mxGeometry x="20" y="126" width="80" height="30" as="geometry" />
        </mxCell>
        <mxCell id="y4ROh2YVIWSlx0f_4qvK-7" value="QUEST" style="rounded=1;whiteSpace=wrap;html=1;fillColor=#e6d0de;strokeColor=#996185;gradientColor=#d5739d;fontColor=#000000;" vertex="1" parent="y4ROh2YVIWSlx0f_4qvK-22">
          <mxGeometry x="220" y="126" width="80" height="30" as="geometry" />
        </mxCell>
        <mxCell id="y4ROh2YVIWSlx0f_4qvK-8" value="Unlocks location" style="rounded=0;orthogonalLoop=1;jettySize=auto;html=1;exitX=1;exitY=0.5;exitDx=0;exitDy=0;entryX=0;entryY=0.5;entryDx=0;entryDy=0;labelPosition=center;verticalLabelPosition=top;align=center;verticalAlign=bottom;entryPerimeter=0;" edge="1" parent="y4ROh2YVIWSlx0f_4qvK-22" source="y4ROh2YVIWSlx0f_4qvK-2" target="y4ROh2YVIWSlx0f_4qvK-3">
          <mxGeometry relative="1" as="geometry">
            <mxPoint x="110" y="90.71000000000004" as="sourcePoint" />
            <mxPoint x="230" y="90.71000000000004" as="targetPoint" />
          </mxGeometry>
        </mxCell>
        <mxCell id="y4ROh2YVIWSlx0f_4qvK-9" value="QUEST" style="rounded=1;whiteSpace=wrap;html=1;fillColor=#e6d0de;strokeColor=#996185;gradientColor=#d5739d;fontColor=#000000;" vertex="1" parent="y4ROh2YVIWSlx0f_4qvK-22">
          <mxGeometry x="20" y="236" width="80" height="30" as="geometry" />
        </mxCell>
        <mxCell id="y4ROh2YVIWSlx0f_4qvK-10" value="QUEST" style="rounded=1;whiteSpace=wrap;html=1;fillColor=#e6d0de;strokeColor=#996185;gradientColor=#d5739d;fontColor=#000000;" vertex="1" parent="y4ROh2YVIWSlx0f_4qvK-22">
          <mxGeometry x="220" y="236" width="80" height="30" as="geometry" />
        </mxCell>
        <mxCell id="y4ROh2YVIWSlx0f_4qvK-11" value="Required to complete" style="rounded=0;orthogonalLoop=1;jettySize=auto;html=1;endArrow=doubleBlock;endFill=1;jumpStyle=arc;strokeColor=#66B2FF;exitX=1;exitY=0.5;exitDx=0;exitDy=0;entryX=0;entryY=0.5;entryDx=0;entryDy=0;labelPosition=center;verticalLabelPosition=top;align=center;verticalAlign=bottom;" edge="1" parent="y4ROh2YVIWSlx0f_4qvK-22" source="y4ROh2YVIWSlx0f_4qvK-9" target="y4ROh2YVIWSlx0f_4qvK-10">
          <mxGeometry relative="1" as="geometry">
            <mxPoint x="130" y="276" as="sourcePoint" />
            <mxPoint x="190" y="276" as="targetPoint" />
          </mxGeometry>
        </mxCell>
        <mxCell id="y4ROh2YVIWSlx0f_4qvK-13" value="LOCATION" style="rounded=0;whiteSpace=wrap;html=1;fillColor=#1ba1e2;strokeColor=#006EAF;fontColor=#ffffff;points=[[0,0,0,0,0],[0,0.25,0,0,0],[0,0.5,0,0,0],[0,0.75,0,0,0],[0,1,0,0,0],[0.12,1,0,0,0],[0.25,0,0,0,0],[0.25,1,0,0,0],[0.37,1,0,0,0],[0.5,0,0,0,0],[0.5,1,0,0,0],[0.62,1,0,0,0],[0.75,0,0,0,0],[0.75,1,0,0,0],[0.87,1,0,0,0],[1,0,0,0,0],[1,0.25,0,0,0],[1,0.5,0,0,0],[1,0.75,0,0,0],[1,1,0,0,0]];" vertex="1" parent="y4ROh2YVIWSlx0f_4qvK-22">
          <mxGeometry x="20" y="286" width="80" height="30" as="geometry" />
        </mxCell>
        <mxCell id="y4ROh2YVIWSlx0f_4qvK-14" value="QUEST" style="rounded=1;whiteSpace=wrap;html=1;fillColor=#e6d0de;strokeColor=#996185;gradientColor=#d5739d;fontColor=#000000;" vertex="1" parent="y4ROh2YVIWSlx0f_4qvK-22">
          <mxGeometry x="220" y="286" width="80" height="30" as="geometry" />
        </mxCell>
        <mxCell id="y4ROh2YVIWSlx0f_4qvK-19" value="QUEST" style="rounded=1;whiteSpace=wrap;html=1;fillColor=#e6d0de;strokeColor=#996185;gradientColor=#d5739d;fontColor=#000000;" vertex="1" parent="y4ROh2YVIWSlx0f_4qvK-22">
          <mxGeometry x="20" y="180" width="80" height="30" as="geometry" />
        </mxCell>
        <mxCell id="y4ROh2YVIWSlx0f_4qvK-20" value="Unlocks quest&lt;br&gt;(Required to start)" style="rounded=0;orthogonalLoop=1;jettySize=auto;html=1;entryX=0;entryY=0.5;entryDx=0;entryDy=0;labelPosition=center;verticalLabelPosition=middle;align=center;verticalAlign=middle;labelBackgroundColor=none;" edge="1" target="y4ROh2YVIWSlx0f_4qvK-21" parent="y4ROh2YVIWSlx0f_4qvK-22" source="y4ROh2YVIWSlx0f_4qvK-19">
          <mxGeometry relative="1" as="geometry">
            <mxPoint x="100" y="195" as="sourcePoint" />
            <mxPoint x="180" y="210" as="targetPoint" />
          </mxGeometry>
        </mxCell>
        <mxCell id="y4ROh2YVIWSlx0f_4qvK-21" value="QUEST" style="rounded=1;whiteSpace=wrap;html=1;fillColor=#e6d0de;strokeColor=#996185;gradientColor=#d5739d;fontColor=#000000;" vertex="1" parent="y4ROh2YVIWSlx0f_4qvK-22">
          <mxGeometry x="220" y="180" width="80" height="30" as="geometry" />
        </mxCell>
      </root>
    </mxGraphModel>
  </diagram>
  <diagram id="us6uI8srR-XQNidnbY4Y" name="Map">
    <mxGraphModel dx="4456" dy="2317" grid="1" gridSize="10" guides="1" tooltips="1" connect="1" arrows="1" fold="1" page="1" pageScale="1" pageWidth="827" pageHeight="1169" math="0" shadow="0">
      <root>
        <mxCell id="0" />
        <mxCell id="1" parent="0" />
        <mxCell id="iMRUxnjMfmetjT06-2Lc-1" value="BEACH" style="rounded=0;whiteSpace=wrap;html=1;fillColor=#1ba1e2;strokeColor=#ff0000;fontColor=#ffffff;dashed=1;strokeWidth=3;" vertex="1" parent="1">
          <mxGeometry x="-827" y="660" width="360" height="180" as="geometry" />
        </mxCell>
        <mxCell id="iMRUxnjMfmetjT06-2Lc-3" value="GRAVEYEARD / TEMPLE" style="rounded=0;whiteSpace=wrap;html=1;fillColor=#1ba1e2;strokeColor=#ff0000;fontColor=#ffffff;points=[[0,0,0,0,0],[0,0.25,0,0,0],[0,0.5,0,0,0],[0,0.75,0,0,0],[0,1,0,0,0],[0.2,1,0,0,0],[0.25,0,0,0,0],[0.4,1,0,0,0],[0.5,0,0,0,0],[0.6,1,0,0,0],[0.75,0,0,0,0],[0.8,1,0,0,0],[1,0,0,0,0],[1,0.25,0,0,0],[1,0.5,0,0,0],[1,0.75,0,0,0],[1,1,0,0,0]];strokeWidth=3;dashed=1;" vertex="1" parent="1">
          <mxGeometry x="-1505" y="80" width="400" height="180" as="geometry" />
        </mxCell>
        <mxCell id="iMRUxnjMfmetjT06-2Lc-4" value="LIBRARY" style="rounded=0;whiteSpace=wrap;html=1;fillColor=#1ba1e2;strokeColor=#ff0000;fontColor=#ffffff;dashed=1;strokeWidth=3;" vertex="1" parent="1">
          <mxGeometry x="-830" y="360" width="360" height="240" as="geometry" />
        </mxCell>
        <mxCell id="iMRUxnjMfmetjT06-2Lc-6" value="PLAZA" style="rounded=0;whiteSpace=wrap;html=1;fillColor=#1ba1e2;strokeColor=#006EAF;fontColor=#ffffff;" vertex="1" parent="1">
          <mxGeometry x="-1660" y="320" width="710" height="320" as="geometry" />
        </mxCell>
        <mxCell id="iMRUxnjMfmetjT06-2Lc-7" value="BRIDGE TO TEMPLE" style="rounded=0;whiteSpace=wrap;html=1;fillColor=#1ba1e2;strokeColor=#006EAF;fontColor=#ffffff;" vertex="1" parent="1">
          <mxGeometry x="-1360" y="260" width="120" height="60" as="geometry" />
        </mxCell>
        <mxCell id="iMRUxnjMfmetjT06-2Lc-8" value="BAR-CAFÉ" style="rounded=0;whiteSpace=wrap;html=1;fillColor=#0050ef;strokeColor=#001DBC;fontColor=#ffffff;strokeWidth=3;" vertex="1" parent="1">
          <mxGeometry x="-1650" y="330" width="120" height="60" as="geometry" />
        </mxCell>
        <mxCell id="iMRUxnjMfmetjT06-2Lc-9" value="ZADKIEL&#39;S ROOM" style="rounded=0;whiteSpace=wrap;html=1;fillColor=#0050ef;strokeColor=#ff0000;fontColor=#ffffff;dashed=1;strokeWidth=3;" vertex="1" parent="1">
          <mxGeometry x="-1230" y="330" width="120" height="60" as="geometry" />
        </mxCell>
        <mxCell id="iMRUxnjMfmetjT06-2Lc-10" value="PURGATORY" style="rounded=0;whiteSpace=wrap;html=1;fillColor=#1ba1e2;strokeColor=#006EAF;fontColor=#ffffff;" vertex="1" parent="1">
          <mxGeometry x="-1420" y="-320" width="120" height="60" as="geometry" />
        </mxCell>
        <mxCell id="iMRUxnjMfmetjT06-2Lc-12" value="GARDEN/GARDEN" style="rounded=0;whiteSpace=wrap;html=1;fillColor=#1ba1e2;strokeColor=#006EAF;fontColor=#ffffff;" vertex="1" parent="1">
          <mxGeometry x="-2200" y="320" width="420" height="320" as="geometry" />
        </mxCell>
        <mxCell id="iMRUxnjMfmetjT06-2Lc-13" value="BRIDGE TO GARDEN" style="rounded=0;whiteSpace=wrap;html=1;fillColor=#1ba1e2;strokeColor=#006EAF;fontColor=#ffffff;" vertex="1" parent="1">
          <mxGeometry x="-1780" y="450" width="120" height="60" as="geometry" />
        </mxCell>
        <mxCell id="iMRUxnjMfmetjT06-2Lc-14" value="BRIDGE TO LIBRARY" style="rounded=0;whiteSpace=wrap;html=1;fillColor=#1ba1e2;strokeColor=#006EAF;fontColor=#ffffff;" vertex="1" parent="1">
          <mxGeometry x="-950" y="450" width="120" height="60" as="geometry" />
        </mxCell>
        <mxCell id="iMRUxnjMfmetjT06-2Lc-15" value="PASSAGE TO BEACH" style="rounded=0;whiteSpace=wrap;html=1;fillColor=#1ba1e2;strokeColor=#ff0000;fontColor=#ffffff;dashed=1;strokeWidth=3;" vertex="1" parent="1">
          <mxGeometry x="-710" y="600" width="120" height="60" as="geometry" />
        </mxCell>
        <mxCell id="iMRUxnjMfmetjT06-2Lc-5" value="SARIEL&#39;s HOUSE / FABRIC SHOP" style="rounded=0;whiteSpace=wrap;html=1;fillColor=#0050ef;strokeColor=#ff0000;fontColor=#ffffff;dashed=1;strokeWidth=3;" vertex="1" parent="1">
          <mxGeometry x="-1520" y="330" width="120" height="60" as="geometry" />
        </mxCell>
        <mxCell id="iMRUxnjMfmetjT06-2Lc-2" value="FIGHTING PIT/ MAGIC TOWER" style="rounded=0;whiteSpace=wrap;html=1;fillColor=#0050ef;strokeColor=#bd0000;fontColor=#ffffff;dashed=1;strokeWidth=3;" vertex="1" parent="1">
          <mxGeometry x="-1920" y="330" width="120" height="60" as="geometry" />
        </mxCell>
        <mxCell id="iMRUxnjMfmetjT06-2Lc-16" value="CONCERT HALL" style="rounded=0;whiteSpace=wrap;html=1;fillColor=#0050ef;strokeColor=#ff0000;fontColor=#ffffff;dashed=1;strokeWidth=3;" vertex="1" parent="1">
          <mxGeometry x="-1090" y="330" width="120" height="60" as="geometry" />
        </mxCell>
        <mxCell id="iMRUxnjMfmetjT06-2Lc-18" value="" style="sketch=0;pointerEvents=1;shadow=0;dashed=0;html=1;strokeColor=none;labelPosition=center;verticalLabelPosition=bottom;verticalAlign=top;outlineConnect=0;align=center;shape=mxgraph.office.security.lock_protected;fillColor=#CCCBCB;" vertex="1" parent="1">
          <mxGeometry x="-1810" y="380" width="18" height="20" as="geometry" />
        </mxCell>
        <mxCell id="iMRUxnjMfmetjT06-2Lc-19" value="" style="sketch=0;pointerEvents=1;shadow=0;dashed=0;html=1;strokeColor=none;labelPosition=center;verticalLabelPosition=bottom;verticalAlign=top;outlineConnect=0;align=center;shape=mxgraph.office.security.lock_protected;fillColor=#CCCBCB;" vertex="1" parent="1">
          <mxGeometry x="-1128" y="230" width="18" height="20" as="geometry" />
        </mxCell>
        <mxCell id="iMRUxnjMfmetjT06-2Lc-20" value="" style="sketch=0;pointerEvents=1;shadow=0;dashed=0;html=1;strokeColor=none;labelPosition=center;verticalLabelPosition=bottom;verticalAlign=top;outlineConnect=0;align=center;shape=mxgraph.office.security.lock_protected;fillColor=#CCCBCB;" vertex="1" parent="1">
          <mxGeometry x="-1140" y="370" width="18" height="20" as="geometry" />
        </mxCell>
        <mxCell id="iMRUxnjMfmetjT06-2Lc-21" value="" style="sketch=0;pointerEvents=1;shadow=0;dashed=0;html=1;strokeColor=none;labelPosition=center;verticalLabelPosition=bottom;verticalAlign=top;outlineConnect=0;align=center;shape=mxgraph.office.security.lock_protected;fillColor=#CCCBCB;" vertex="1" parent="1">
          <mxGeometry x="-1000" y="370" width="18" height="20" as="geometry" />
        </mxCell>
        <mxCell id="iMRUxnjMfmetjT06-2Lc-22" value="" style="sketch=0;pointerEvents=1;shadow=0;dashed=0;html=1;strokeColor=none;labelPosition=center;verticalLabelPosition=bottom;verticalAlign=top;outlineConnect=0;align=center;shape=mxgraph.office.security.lock_protected;fillColor=#CCCBCB;" vertex="1" parent="1">
          <mxGeometry x="-1430" y="370" width="18" height="20" as="geometry" />
        </mxCell>
        <mxCell id="iMRUxnjMfmetjT06-2Lc-23" value="" style="sketch=0;pointerEvents=1;shadow=0;dashed=0;html=1;strokeColor=none;labelPosition=center;verticalLabelPosition=bottom;verticalAlign=top;outlineConnect=0;align=center;shape=mxgraph.office.security.lock_protected;fillColor=#CCCBCB;" vertex="1" parent="1">
          <mxGeometry x="-488" y="580" width="18" height="20" as="geometry" />
        </mxCell>
        <mxCell id="iMRUxnjMfmetjT06-2Lc-24" value="" style="sketch=0;pointerEvents=1;shadow=0;dashed=0;html=1;strokeColor=none;labelPosition=center;verticalLabelPosition=bottom;verticalAlign=top;outlineConnect=0;align=center;shape=mxgraph.office.security.lock_protected;fillColor=#CCCBCB;" vertex="1" parent="1">
          <mxGeometry x="-608" y="640" width="18" height="20" as="geometry" />
        </mxCell>
        <mxCell id="iMRUxnjMfmetjT06-2Lc-25" value="" style="sketch=0;pointerEvents=1;shadow=0;dashed=0;html=1;strokeColor=none;labelPosition=center;verticalLabelPosition=bottom;verticalAlign=top;outlineConnect=0;align=center;shape=mxgraph.office.security.lock_protected;fillColor=#CCCBCB;" vertex="1" parent="1">
          <mxGeometry x="-488" y="820" width="18" height="20" as="geometry" />
        </mxCell>
      </root>
    </mxGraphModel>
  </diagram>
</mxfile>
